HIERARCHY
ROOT Hips
{
	OFFSET 0.00 0.00 0.00
	CHANNELS 6 Xposition Yposition Zposition Xrotation Yrotation Zrotation
	JOINT Spine
	{
		OFFSET 0.00000 2.10617 3.15926
		CHANNELS 3 Xrotation Yrotation Zrotation
		JOINT Spine1
		{
			OFFSET 0.00000 0.73147 4.14835
			CHANNELS 3 Xrotation Yrotation Zrotation
			JOINT Spine2
			{
				OFFSET 0.00000 0.36713 4.19631
				CHANNELS 3 Xrotation Yrotation Zrotation
				JOINT Spine3
				{
					OFFSET 0.00000 0.00000 4.21234
					CHANNELS 3 Xrotation Yrotation Zrotation
					JOINT Neck
					{
						OFFSET 0.00000 -1.57962 11.05740
						CHANNELS 3 Xrotation Yrotation Zrotation
						JOINT Head
						{
							OFFSET 0.00000 -1.00576 5.70398
							CHANNELS 3 Xrotation Yrotation Zrotation
							End Site
							{
								OFFSET 0.00000 0.00001 6.81873
							}
						}
					}
					JOINT RightShoulder
					{
						OFFSET -1.28113 -2.13521 6.91810
						CHANNELS 3 Xrotation Yrotation Zrotation
						JOINT RightArm
						{
							OFFSET -6.36294 0.00000 0.00000
							CHANNELS 3 Xrotation Yrotation Zrotation
							JOINT RightForeArm
							{
								OFFSET -10.12221 0.00000 0.00000
								CHANNELS 3 Xrotation Yrotation Zrotation
								JOINT RightHand
								{
									OFFSET -10.76713 0.00000 0.00000
									CHANNELS 3 Xrotation Yrotation Zrotation
									JOINT RightHandEnd
									{
										OFFSET -2.78915 0.00000 0.00000
										CHANNELS 3 Xrotation Yrotation Zrotation
										End Site
										{
											OFFSET -2.78915 0.00000 0.00000
										}
									}
									JOINT RightHandThumb1
									{
										OFFSET -1.11566 -1.85944 -0.74377
										CHANNELS 3 Yrotation Xrotation Zrotation
										End Site
										{
											OFFSET -2.69412 -0.72189 0.00000
										}
									}
								}
							}
						}
					}
					JOINT LeftShoulder
					{
						OFFSET 1.28113 -2.13521 6.91810
						CHANNELS 3 Xrotation Yrotation Zrotation
						JOINT LeftArm
						{
							OFFSET 6.36294 0.00000 0.00000
							CHANNELS 3 Xrotation Yrotation Zrotation
							JOINT LeftForeArm
							{
								OFFSET 10.12221 0.00000 0.00000
								CHANNELS 3 Xrotation Yrotation Zrotation
								JOINT LeftHand
								{
									OFFSET 10.76713 0.00000 0.00000
									CHANNELS 3 Xrotation Yrotation Zrotation
									JOINT LeftHandEnd
									{
										OFFSET 2.78915 0.00000 0.00000
										CHANNELS 3 Xrotation Yrotation Zrotation
										End Site
										{
											OFFSET 2.78915 0.00000 0.00000
										}
									}
									JOINT LeftHandThumb1
									{
										OFFSET 1.11566 -1.85944 -0.74377
										CHANNELS 3 Yrotation Xrotation Zrotation
										End Site
										{
											OFFSET 2.69412 -0.72189 0.00000
										}
									}
								}
							}
						}
					}
				}
			}
		}
	}
	JOINT RightUpLeg
	{
		OFFSET -3.80068 0.00000 -1.11031
		CHANNELS 3 Xrotation Yrotation Zrotation
		JOINT RightLeg
		{
			OFFSET 0.00001 0.00000 -17.00167
			CHANNELS 3 Xrotation Yrotation Zrotation
			JOINT RightFoot
			{
				OFFSET 0.00001 0.00000 -17.96841
				CHANNELS 3 Xrotation Yrotation Zrotation
				JOINT RightToeBase
				{
					OFFSET 0.00000 -5.07501 -1.84715
					CHANNELS 3 Xrotation Yrotation Zrotation
					End Site
					{
						OFFSET 0.00000 -3.07471 -0.00000
					}
				}
			}
		}
	}
	JOINT LeftUpLeg
	{
		OFFSET 3.80068 0.00000 -1.11031
		CHANNELS 3 Xrotation Yrotation Zrotation
		JOINT LeftLeg
		{
			OFFSET 0.00001 0.00000 -17.00167
			CHANNELS 3 Xrotation Yrotation Zrotation
			JOINT LeftFoot
			{
				OFFSET 0.00001 0.00000 -17.96841
				CHANNELS 3 Xrotation Yrotation Zrotation
				JOINT LeftToeBase
				{
					OFFSET 0.00000 -5.07501 -1.84715
					CHANNELS 3 Xrotation Yrotation Zrotation
					End Site
					{
						OFFSET 0.00000 -3.07471 -0.00000
					}
				}
			}
		}
	}
}
MOTION
Frames: 6
Frame Time: 0.008342
 10.5947 47.3981 38.6357 11.7839 -4.1670 2.8814 5.2686 2.5952 -0.3857 4.3042 0.1397 0.0248 0.0231 -0.2935 -1.2528 0.1626 0.2892 -0.4444 -24.5232 2.0219 0.1530 6.3318 -1.1237 0.1465 -18.8915 3.3290 31.5611 -34.4712 -16.3776 16.6328 -0.0000 0.0000 41.4692 -60.0755 2.5539 3.3507 0.0000 -0.0000 -0.0000 0.0000 -0.0000 -0.0000 -20.3079 -1.2629 -37.9798 -22.6685 5.0945 -21.1784 -0.0000 -0.0000 -30.6562 -45.1645 -4.9917 -1.5452 -0.0000 0.0000 -0.0000 -0.0000 -0.0000 0.0000 -17.0893 7.9555 -30.6207 4.9639 0.0000 0.0000 4.8178 -5.5858 9.9995 -1.6908 0.0000 -0.0000 -15.0089 -1.0535 21.0575 3.8291 0.0000 0.0000 17.1943 31.1253 -8.0246 -1.1315 0.0000 -0.0000
 10.5843 47.3830 38.6308 11.6265 -4.2106 2.7879 5.2181 2.6161 -0.3899 4.2593 0.1631 0.0259 0.1421 -0.3412 -1.2384 0.1724 0.2973 -0.4323 -23.8880 1.9383 0.1096 5.8883 -0.9795 0.2015 -18.5426 3.1417 31.2272 -33.8661 -16.4940 16.4866 -0.0000 0.0000 42.3286 -59.5994 2.6312 3.3982 0.0000 -0.0000 0.0000 -0.0000 -0.0000 -0.0000 -19.8362 -1.0573 -37.6512 -22.0954 5.2505 -20.8226 -0.0000 -0.0000 -30.5443 -44.9234 -4.9750 -1.4239 0.0000 0.0000 0.0000 0.0000 0.0000 -0.0000 -17.0234 7.9841 -30.2919 5.1737 0.0000 0.0000 4.5946 -5.5625 9.7517 -1.6332 0.0000 -0.0000 -14.8970 -1.0865 21.0525 4.0084 0.0000 0.0000 16.9979 31.1548 -7.9386 -1.1190 0.0000 -0.0000
 10.5732 47.3690 38.6252 11.4769 -4.2467 2.7192 5.1660 2.6253 -0.3918 4.2100 0.1855 0.0263 0.2628 -0.3673 -1.2542 0.1819 0.3110 -0.4320 -23.3002 1.7845 0.0237 5.4881 -0.7992 0.3039 -18.2021 2.9116 30.8987 -33.2091 -16.6214 16.3390 -0.0000 0.0000 43.1753 -59.1168 2.7423 3.4217 0.0000 -0.0000 -0.0000 -0.0000 0.0000 0.0000 -19.3621 -0.8701 -37.3015 -21.4492 5.4364 -20.4945 -0.0000 -0.0000 -30.4165 -44.5734 -5.0287 -1.2767 -0.0000 -0.0000 -0.0000 -0.0000 -0.0000 0.0000 -16.9555 8.0075 -29.9981 5.3702 0.0000 0.0000 4.3725 -5.5331 9.5129 -1.5769 0.0000 -0.0000 -14.7965 -1.1200 20.9969 4.1854 0.0000 0.0000 16.7884 31.1997 -7.8258 -1.0979 0.0000 -0.0000
 10.5615 47.3567 38.6190 11.3328 -4.2734 2.6733 5.1169 2.6208 -0.3911 4.1577 0.2051 0.0254 0.3834 -0.3719 -1.2972 0.1909 0.3292 -0.4421 -22.7657 1.5720 -0.0939 5.1281 -0.5918 0.4437 -17.8658 2.6490 30.5737 -32.5184 -16.7662 16.1854 -0.0000 0.0000 44.0141 -58.6333 2.8739 3.4172 0.0000 0.0000 -0.0000 0.0000 -0.0000 -0.0000 -18.8854 -0.7011 -36.9240 -20.7424 5.6553 -20.1968 -0.0000 -0.0000 -30.2779 -44.1165 -5.0884 -1.0937 0.0000 -0.0000 -0.0000 -0.0000 0.0000 -0.0000 -16.8844 8.0235 -29.7384 5.5536 0.0000 0.0000 4.1535 -5.4975 9.2843 -1.5286 0.0000 -0.0000 -14.7073 -1.1565 20.8850 4.3625 0.0000 0.0000 16.5584 31.2640 -7.6776 -1.0693 0.0000 -0.0000
 10.5491 47.3464 38.6121 11.1934 -4.2884 2.6474 5.0731 2.6012 -0.3879 4.1043 0.2200 0.0239 0.5008 -0.3591 -1.3610 0.1993 0.3516 -0.4625 -22.2851 1.3186 -0.2288 4.8069 -0.3711 0.6074 -17.5268 2.3635 30.2522 -31.8092 -16.9291 16.0243 -0.0000 0.0000 44.8453 -58.1491 3.0201 3.3861 -0.0000 -0.0000 -0.0000 -0.0000 0.0000 -0.0000 -18.4042 -0.5441 -36.5180 -19.9739 5.9031 -19.9329 -0.0000 -0.0000 -30.1336 -43.6022 -5.1713 -0.8818 -0.0000 -0.0000 0.0000 -0.0000 -0.0000 0.0000 -16.8109 8.0294 -29.5089 5.7249 0.0000 0.0000 3.9395 -5.4553 9.0654 -1.4841 0.0000 -0.0000 -14.6307 -1.1995 20.7140 4.5435 0.0000 0.0000 16.3011 31.3497 -7.4881 -1.0252 0.0000 -0.0000
 10.5360 47.3398 38.6041 11.0761 -4.2897 2.6389 5.0204 2.5677 -0.3840 4.0501 0.2295 0.0212 0.6114 -0.3377 -1.4367 0.2082 0.3749 -0.4894 -21.8581 1.0532 -0.3612 4.5213 -0.1558 0.7753 -17.1777 2.0732 29.9326 -31.0942 -17.1108 15.8557 -0.0000 0.0000 45.6681 -57.6622 3.1660 3.3341 -0.0000 0.0000 -0.0000 -0.0000 -0.0000 0.0000 -17.9187 -0.3851 -36.0878 -19.1535 6.1793 -19.6968 -0.0000 -0.0000 -29.9882 -43.0498 -5.2431 -0.6501 0.0000 -0.0000 0.0000 -0.0000 0.0000 0.0000 -16.7607 8.0252 -29.2992 5.8927 0.0000 0.0000 3.7297 -5.4062 8.8502 -1.4464 0.0000 -0.0000 -14.5917 -1.2521 20.4802 4.7379 0.0000 0.0000 16.0050 31.4576 -7.2472 -0.9638 0.0000 -0.0000
